<?xml version="1.0" encoding="UTF-8" standalone="no"?>
<!-- Generator: Adobe Illustrator 26.2.1, SVG Export Plug-In . SVG Version: 6.00 Build 0)  -->

<svg
   version="1.1"
   id="Layer_1"
   x="0px"
   y="0px"
   viewBox="0 0 40 40"
   xml:space="preserve"
   width="40"
   height="40"
   xmlns="http://www.w3.org/2000/svg"
   xmlns:svg="http://www.w3.org/2000/svg"><defs
   id="defs29" />
<style
   type="text/css"
   id="style2">
	.st0{fill:#FF9933;}
	.st1{fill:#009CDE;}
</style>

<g
   id="g200"
   transform="translate(-0.26130208,1.361204)"><g
     id="g20"
     transform="matrix(0.13672617,0,0,0.13672617,2.1792661,11.214565)">
	<path
   class="st0"
   d="m 263.9,56.2 c 0,3.1 -2.5,5.6 -5.6,5.6 -3.1,0 -5.6,-2.5 -5.6,-5.6 0,-3.1 2.5,-5.6 5.6,-5.6 3.1,0 5.6,2.5 5.6,5.6"
   id="path4" />
	<path
   class="st0"
   d="m 81.4,87.6 0.7,7.5 h 11.8 l -4,-43.4 H 72.3 L 50,95 h 12 l 3.7,-7.5 H 81.4 Z M 80.9,79.1 H 70.1 l 9.3,-18.8 h 0.1 z"
   id="path6" />
	<polygon
   class="st0"
   points="119.8,79.2 127,95 115.3,95 110.7,82.7 108.9,82.7 106.3,95 96.3,95 105.6,51.6 115.5,51.6 110.3,76 112.1,76 120.5,64.6 131.5,64.6 "
   id="polygon8" />
	<g
   id="g16">
		<path
   class="st0"
   d="m 147,95 h 10 l 4,-19 c 2.2,-10.5 -1.8,-11.8 -12,-11.8 -7.1,0 -14,-0.1 -16,9.4 h 10 c 0.6,-2.7 2.3,-3.3 4.7,-3.3 4.3,0 4.1,1.8 3.5,4.6 l -1,4.8 h -0.5 c -0.4,-3.5 -4.7,-3.4 -7.6,-3.4 -7.2,0 -11.5,2.3 -13,9.6 -1.6,7.7 2,9.4 9,9.4 3.5,0 8.1,-0.7 9.8,-4.9 h 0.3 z m -2.8,-12.5 c 3.2,0 5.4,0.2 4.8,2.8 -0.7,3.2 -2.1,3.7 -6.2,3.7 -1.5,0 -4.3,0 -3.6,-3.3 0.6,-2.8 2.6,-3.2 5,-3.2"
   id="path10" />
		<path
   class="st0"
   d="m 177,64.6 -0.9,4.3 h 0.4 c 2,-3.6 5.9,-4.6 9.3,-4.6 4.3,0 8.5,0.7 7.9,6 h 0.5 c 1.5,-4.3 5.9,-6 9.7,-6 7,0 10,2.9 8.5,10 L 208,95 h -9.9 l 3.7,-17.6 c 0.5,-3.2 1.1,-5.5 -2.8,-5.5 -3.9,0 -5.2,2.6 -5.9,5.8 L 189.5,95 h -10 l 3.9,-18.4 c 0.5,-2.8 0.7,-4.7 -2.8,-4.7 -4.1,0 -5.3,2.2 -6.1,5.8 L 170.9,95 h -10 l 6.5,-30.4 z"
   id="path12" />
		<path
   class="st0"
   d="m 230.9,95 h 10 l 4,-19 c 2.2,-10.5 -1.8,-11.8 -12,-11.8 -7.1,0 -14,-0.1 -16,9.4 h 10 c 0.6,-2.7 2.3,-3.3 4.7,-3.3 4.4,0 4.1,1.8 3.6,4.6 l -1,4.8 h -0.5 c -0.4,-3.5 -4.7,-3.4 -7.6,-3.4 -7.2,0 -11.5,2.3 -13,9.6 -1.6,7.7 2,9.4 9,9.4 3.5,0 8.1,-0.7 9.8,-4.9 h 0.3 z m -2.8,-12.5 c 3.2,0 5.4,0.2 4.8,2.8 -0.7,3.2 -2.1,3.7 -6.2,3.7 -1.5,0 -4.3,0 -3.6,-3.3 0.6,-2.8 2.6,-3.2 5,-3.2"
   id="path14" />
	</g>
	<polygon
   class="st0"
   points="245.3,95 251.7,64.6 261.7,64.6 255.2,95 "
   id="polygon18" />
</g><g
     id="g24"
     transform="matrix(0.13672617,0,0,0.13672617,2.1792661,11.214565)">
	<path
   class="st1"
   d="m 55.1,105.5 c 2.5,0.8 2.4,2.4 -0.4,2.4 -29.8,0 -54.1,-24 -54.1,-53.6 0,-29.6 24.2,-53.6 54.1,-53.6 2.8,0 3.4,1.5 1.1,2.2 C 33.4,9.3 17,29.9 17,54.3 17,78.4 33,98.8 55.1,105.5 M 27.2,66.8 C 27.1,65.4 27,63.9 27,62.4 27,38.9 46.1,19.8 69.6,19.8 c 22.2,0 28.9,9.9 29.7,9.3 0.9,-0.7 -8.1,-20.4 -34.2,-20.4 -23.5,0 -42.6,19.1 -42.6,42.6 0,5.4 1,10.6 2.9,15.4 0.8,2 2,2.1 1.8,0.1 M 45.1,36.1 c 11.1,-4.8 25,-5 38.6,-0.2 9.2,3.2 14.5,7.8 14.9,7.6 C 99.3,43.2 93.3,33.6 82.3,29.4 69,24.4 54.8,27 44.4,35.2 c -1.1,0.9 -0.7,1.5 0.7,0.9"
   id="path22" />
</g></g>
</svg>
